<svg width="200" height="157" viewBox="0 0 200 157" fill="none" xmlns="http://www.w3.org/2000/svg">
<path d="M18.515 148L13.79 141.175H13.51H8.575V148H2.905V123.5H13.51C15.68 123.5 17.5583 123.862 19.145 124.585C20.755 125.308 21.9917 126.335 22.855 127.665C23.7183 128.995 24.15 130.57 24.15 132.39C24.15 134.21 23.7067 135.785 22.82 137.115C21.9567 138.422 20.72 139.425 19.11 140.125L24.605 148H18.515ZM18.41 132.39C18.41 131.013 17.9667 129.963 17.08 129.24C16.1933 128.493 14.8983 128.12 13.195 128.12H8.575V136.66H13.195C14.8983 136.66 16.1933 136.287 17.08 135.54C17.9667 134.793 18.41 133.743 18.41 132.39ZM44.8803 129.1V148H40.6413V145.705C39.3453 147.451 37.4373 148.324 34.9173 148.324C32.6853 148.324 30.9393 147.622 29.6793 146.218C28.4373 144.796 27.8163 142.78 27.8163 140.17V129.1H32.1903V140.035C32.1903 141.547 32.5413 142.69 33.2433 143.464C33.9633 144.22 34.9353 144.598 36.1593 144.598C37.4733 144.598 38.5263 144.193 39.3183 143.383C40.1103 142.555 40.5063 141.34 40.5063 139.738V129.1H44.8803ZM63.1321 134.392C61.5121 133.456 59.7751 132.853 57.9211 132.583V148H53.5471V132.583C51.6931 132.853 49.9471 133.456 48.3091 134.392L46.8241 131.125C48.1201 130.351 49.5241 129.766 51.0361 129.37C52.5481 128.974 54.1051 128.776 55.7071 128.776C57.3271 128.776 58.8931 128.974 60.4051 129.37C61.9351 129.766 63.3391 130.351 64.6171 131.125L63.1321 134.392ZM83.4819 129.1V148H79.2429V145.705C77.9469 147.451 76.0389 148.324 73.5189 148.324C71.2869 148.324 69.5409 147.622 68.2809 146.218C67.0389 144.796 66.4179 142.78 66.4179 140.17V129.1H70.7919V140.035C70.7919 141.547 71.1429 142.69 71.8449 143.464C72.5649 144.22 73.5369 144.598 74.7609 144.598C76.0749 144.598 77.1279 144.193 77.9199 143.383C78.7119 142.555 79.1079 141.34 79.1079 139.738V129.1H83.4819ZM105.183 135.365H110.363V148H106.093V146.53C104.389 147.79 102.196 148.42 99.5127 148.42C97.2493 148.42 95.1727 147.93 93.2827 146.95C91.3927 145.97 89.8877 144.547 88.7677 142.68C87.6477 140.79 87.0877 138.55 87.0877 135.96C87.0877 133.463 87.6593 131.247 88.8027 129.31C89.9693 127.35 91.5793 125.822 93.6327 124.725C95.686 123.628 97.996 123.08 100.563 123.08C102.709 123.08 104.658 123.442 106.408 124.165C108.158 124.888 109.628 125.938 110.818 127.315L107.178 130.675C105.428 128.832 103.316 127.91 100.843 127.91C99.2793 127.91 97.891 128.248 96.6777 128.925C95.4643 129.578 94.5193 130.512 93.8427 131.725C93.166 132.938 92.8277 134.338 92.8277 135.925C92.8277 137.582 93.1543 138.993 93.8077 140.16C94.4843 141.327 95.3827 142.213 96.5027 142.82C97.6227 143.403 98.8477 143.695 100.178 143.695C102.161 143.695 103.829 143.135 105.183 142.015V135.365ZM123.471 128.776C125.217 128.776 126.738 129.118 128.034 129.802C129.33 130.486 130.338 131.494 131.058 132.826C131.778 134.158 132.138 135.769 132.138 137.659V148H127.764V143.464H119.124V148H114.804V137.659C114.804 135.769 115.164 134.158 115.884 132.826C116.604 131.494 117.612 130.486 118.908 129.802C120.204 129.118 121.725 128.776 123.471 128.776ZM127.764 139.954V137.254C127.764 135.688 127.377 134.509 126.603 133.717C125.829 132.907 124.776 132.502 123.444 132.502C122.094 132.502 121.032 132.907 120.258 133.717C119.502 134.509 119.124 135.688 119.124 137.254V139.954H127.764ZM146.472 128.776C148.722 128.776 150.477 129.487 151.737 130.909C152.997 132.313 153.627 134.32 153.627 136.93V148H149.253V137.065C149.253 135.553 148.893 134.419 148.173 133.663C147.471 132.889 146.49 132.502 145.23 132.502C143.898 132.502 142.827 132.916 142.017 133.744C141.225 134.554 140.829 135.76 140.829 137.362V148H136.455V129.1H140.694V131.395C141.342 130.531 142.152 129.883 143.124 129.451C144.096 129.001 145.212 128.776 146.472 128.776ZM157.944 129.1H166.53C168.582 129.1 170.391 129.496 171.957 130.288C173.541 131.062 174.765 132.16 175.629 133.582C176.511 135.004 176.952 136.66 176.952 138.55C176.952 140.44 176.511 142.096 175.629 143.518C174.765 144.94 173.541 146.047 171.957 146.839C170.391 147.613 168.582 148 166.53 148H157.944V129.1ZM166.314 144.409C168.204 144.409 169.707 143.887 170.823 142.843C171.957 141.781 172.524 140.35 172.524 138.55C172.524 136.75 171.957 135.328 170.823 134.284C169.707 133.222 168.204 132.691 166.314 132.691H162.318V144.409H166.314ZM197.585 129.1V148H193.211V140.251H184.625V148H180.251V129.1H184.625V136.552H193.211V129.1H197.585Z" fill="black"/>
<mask id="mask0_90_455" style="mask-type:luminance" maskUnits="userSpaceOnUse" x="26" y="0" width="124" height="108">
<path d="M26.0583 0H149.407V107.888H26.0583V0Z" fill="white"/>
</mask>
<g mask="url(#mask0_90_455)">
<path d="M149.205 51.4457C148.81 49.6602 147.866 48.0767 146.476 46.8641L96.4427 3.26519C94.0267 1.15885 90.9358 0 87.7411 0C84.5482 0 81.4573 1.15885 79.0414 3.26519L29.0085 46.8641C27.6179 48.0767 26.6741 49.6602 26.2792 51.4457C25.9213 53.0625 26.04 54.7443 26.6259 56.3055C27.2063 57.8556 28.2112 59.1943 29.5296 60.1733C30.9943 61.258 32.741 61.8328 34.5784 61.8328H39.9537V68.111C42.1008 67.1802 44.3202 66.4311 46.5879 65.8693V57.0935C46.5879 56.0478 45.7535 55.1985 44.7226 55.1985H34.5784C32.8485 55.1985 32.0512 53.0106 33.3658 51.8648L83.3987 8.26588C84.6484 7.17748 86.1947 6.63235 87.7411 6.63235C89.2893 6.63235 90.8357 7.17748 92.0836 8.26588L142.118 51.8648C143.433 53.0106 142.636 55.1985 140.906 55.1985H130.76C129.731 55.1985 128.896 56.0478 128.896 57.0935V99.3611C128.896 100.409 128.062 101.256 127.033 101.256H98.0725C96.821 103.724 95.1819 105.962 93.2332 107.888H127.033C131.718 107.888 135.53 104.063 135.53 99.3611V61.8328H140.906C142.743 61.8328 144.49 61.258 145.953 60.1733C147.273 59.1943 148.278 57.8556 148.858 56.3055C149.444 54.7443 149.563 53.0625 149.205 51.4457Z" fill="#2E2D2D"/>
</g>
<path d="M75.2716 107.425H72.8408V100.993C72.8408 91.2231 80.76 83.304 90.5277 83.304H92.9585V89.7379C92.9585 99.5057 85.0394 107.425 75.2716 107.425Z" fill="#4C7E36"/>
<mask id="mask1_90_455" style="mask-type:luminance" maskUnits="userSpaceOnUse" x="21" y="72" width="57" height="36">
<path d="M21 72.3513H77.8469V107.477H21V72.3513Z" fill="white"/>
</mask>
<g mask="url(#mask1_90_455)">
<path d="M25.0476 102.556L21 100.22L27.1855 89.508C36.575 73.2433 57.3732 67.6697 73.6398 77.061L77.6856 79.3973L71.5019 90.1088C62.1106 106.374 41.3124 111.947 25.0476 102.556Z" fill="#4C7E36"/>
</g>
<path d="M98.8808 77.4688H96.45V71.0348C96.45 61.267 104.369 53.3479 114.137 53.3479H116.568V59.7819C116.568 69.5496 108.649 77.4688 98.8808 77.4688Z" fill="#4C7E36"/>
<path d="M89.4282 77.4688H92.9585V68.1238C92.9585 53.932 81.4553 42.4287 67.2635 42.4287H63.7332V51.7737C63.7332 65.9636 75.2364 77.4688 89.4282 77.4688Z" fill="#4C7E36"/>
<path d="M71.8469 62.9081L71.2498 63.0323C70.8642 63.1324 70.4989 63.2659 70.1577 63.4347C69.8166 63.6015 69.4976 63.8036 69.201 64.0391L68.7727 64.4192C67.9364 65.2536 67.3338 66.342 66.9667 67.6825C66.633 68.9434 66.5977 70.2969 66.8647 71.7469L67.1373 72.7667C67.3616 73.423 67.6713 74.0294 68.0644 74.5875C69.2473 76.2599 71.1961 77.4874 73.9106 78.2736C76.3506 78.8465 78.5942 78.8743 80.643 78.357C82.1208 78.014 83.5875 77.4299 85.0448 76.6067L83.7618 70.1931C83.1313 69.8111 81.7333 68.439 79.5695 66.075C79.0651 65.5873 78.3661 65.057 77.4687 64.4823C76.8698 64.0651 75.8426 63.6386 74.3871 63.2047C73.5527 62.9971 72.7054 62.8988 71.8469 62.9081Z" fill="#F5A630" fill-opacity="0.992"/>
<path d="M90.6666 58.3469L90.2606 57.8907C89.9806 57.607 89.6821 57.3586 89.365 57.1454C89.0498 56.934 88.716 56.7597 88.3637 56.6206L87.8205 56.4389C86.6802 56.1311 85.436 56.1534 84.0917 56.5057C82.8328 56.8468 81.6424 57.4958 80.5206 58.4507L79.7734 59.1979C79.3173 59.7189 78.9464 60.29 78.6609 60.9112C77.8043 62.7709 77.7153 65.0738 78.392 67.8161C79.1152 70.2154 80.2128 72.1734 81.685 73.6882C82.7215 74.797 83.9601 75.776 85.4026 76.6252L90.3143 72.3069C90.3292 71.5708 90.8187 69.674 91.7847 66.6183C91.9553 65.9378 92.0647 65.0664 92.1129 64.0021C92.1741 63.2734 92.0313 62.172 91.6808 60.6942C91.4417 59.8673 91.1023 59.0848 90.6666 58.3469Z" fill="#F5A630" fill-opacity="0.992"/>
<mask id="mask2_90_455" style="mask-type:luminance" maskUnits="userSpaceOnUse" x="85" y="62" width="20" height="18">
<path d="M85.4417 62.8579H104.406V79.4712H85.4417V62.8579Z" fill="white"/>
</mask>
<g mask="url(#mask2_90_455)">
<path d="M104.026 72.3624L104.217 71.7839C104.325 71.3982 104.389 71.0163 104.415 70.6362C104.441 70.2561 104.427 69.8797 104.371 69.5051L104.256 68.9452C103.952 67.803 103.31 66.7369 102.333 65.7505C101.408 64.8289 100.251 64.1225 98.864 63.6293L97.8442 63.3549C97.1637 63.2214 96.4833 63.1861 95.8028 63.2473C93.7632 63.4365 91.7255 64.51 89.6896 66.468C87.9726 68.2925 86.8249 70.2227 86.2483 72.2567C85.807 73.7067 85.5789 75.2697 85.5659 76.9441L91.7607 79.0393C92.4059 78.6833 94.2935 78.1604 97.4215 77.4669C98.0964 77.2741 98.9066 76.9348 99.8523 76.4434C100.512 76.1338 101.397 75.457 102.5 74.415C103.097 73.7938 103.605 73.1096 104.026 72.3624Z" fill="#F5A630" fill-opacity="0.992"/>
</g>
<path d="M98.5673 90.9412L99.1644 90.8169C99.5519 90.7168 99.9153 90.5833 100.258 90.4164C100.6 90.2477 100.918 90.0456 101.215 89.8101L101.642 89.4319C102.48 88.5957 103.082 87.5091 103.448 86.1686C103.783 84.9077 103.816 83.5523 103.549 82.1042L103.277 81.0826C103.053 80.4262 102.745 79.8199 102.35 79.2618C101.167 77.5893 99.2182 76.3619 96.5037 75.5776C94.0654 75.0028 91.8219 74.9749 89.7712 75.4923C88.2953 75.8353 86.8268 76.4193 85.3694 77.2444L86.6525 83.658C87.2829 84.0381 88.6809 85.4102 90.8447 87.7743C91.3491 88.2619 92.0499 88.7941 92.9455 89.367C93.5463 89.7842 94.5735 90.2106 96.0271 90.6464C96.8634 90.8522 97.7107 90.9504 98.5673 90.9412Z" fill="#F5A630" fill-opacity="0.992"/>
<path d="M66.3883 81.4869L66.1973 82.0673C66.0916 82.4511 66.0249 82.833 65.9989 83.2131C65.9748 83.5932 65.9897 83.9696 66.0453 84.3442L66.1602 84.9041C66.4643 86.0463 67.104 87.1125 68.083 88.1007C69.0064 89.0204 70.1634 89.7268 71.5522 90.22L72.572 90.4963C73.2524 90.6298 73.9329 90.665 74.6115 90.602C76.6511 90.4129 78.6907 89.3412 80.7266 87.3813C82.4435 85.5568 83.5894 83.6266 84.1661 81.5945C84.6073 80.1426 84.8354 78.5796 84.8502 76.9071L78.6536 74.8101C78.0102 75.1661 76.1227 75.6908 72.9928 76.3824C72.3179 76.5752 71.5077 76.9164 70.5639 77.4059C69.902 77.7174 69.0194 78.3923 67.9143 79.4344C67.3191 80.0555 66.8092 80.7397 66.3883 81.4869Z" fill="#F5A630" fill-opacity="0.992"/>
<mask id="mask3_90_455" style="mask-type:luminance" maskUnits="userSpaceOnUse" x="77" y="77" width="16" height="21">
<path d="M77.8469 77.0979H92.5616V97.9814H77.8469V77.0979Z" fill="white"/>
</mask>
<g mask="url(#mask3_90_455)">
<path d="M79.7493 95.5042L80.1554 95.9585C80.4354 96.244 80.7339 96.4925 81.0491 96.7039C81.3662 96.9152 81.6999 97.0914 82.0522 97.2304L82.5936 97.4103C83.7358 97.7181 84.9781 97.6958 86.3224 97.3435C87.5832 97.0024 88.7717 96.3553 89.8935 95.4004L90.6426 94.6531C91.0987 94.1303 91.4695 93.5592 91.7551 92.9399C92.6117 91.0783 92.7007 88.7773 92.0221 86.035C91.3008 83.6357 90.2031 81.6777 88.7309 80.161C87.6944 79.054 86.4559 78.075 85.0133 77.2258L80.0998 81.5423C80.0849 82.2803 79.5954 84.1752 78.6313 87.2328C78.4588 87.9132 78.3494 88.7847 78.3012 89.8471C78.2401 90.5758 78.3847 91.6791 78.7351 93.155C78.9743 93.9819 79.3118 94.7644 79.7493 95.5042Z" fill="#F5A630" fill-opacity="0.992"/>
</g>
<path d="M82.5529 72.3495L82.4157 72.3587C82.0467 72.3903 81.6703 72.4403 81.2847 72.5089L84.1123 73.5417C83.6784 73.6567 83.3168 73.9181 83.0257 74.3223C82.7254 74.7951 82.5158 75.2753 82.399 75.7667C82.2674 76.132 82.1802 76.7216 82.1431 77.5356C82.1413 77.7655 82.1543 77.9936 82.1821 78.2216C82.2544 78.6388 82.3582 79.0263 82.4917 79.3823C82.6271 79.7383 82.794 80.0628 82.9905 80.3576L83.3094 80.7767C83.5393 81.0418 83.7989 81.2754 84.09 81.4775C84.8131 81.9911 85.5956 82.2377 86.4411 82.2136C87.014 82.1747 87.5388 81.9541 88.0171 81.5517C88.4047 81.1809 88.6327 80.9324 88.6976 80.81C88.9164 80.4448 89.0963 80.0795 89.2353 79.7105C89.3744 79.3415 89.4727 78.9726 89.532 78.5999L89.5895 78.0418C89.6284 77.2964 89.506 76.5436 89.2224 75.7852C88.6142 74.4669 87.7372 73.5417 86.5913 73.004C85.3156 72.4552 83.9695 72.2364 82.5529 72.3495Z" fill="#F5A630" fill-opacity="0.992"/>
<path d="M87.8429 72.3385L87.765 72.2235C87.5555 71.9195 87.3238 71.6191 87.0716 71.3206L87.5908 74.2854C87.2737 73.9683 86.8676 73.7847 86.3707 73.7347C85.8108 73.7106 85.2897 73.7699 84.8077 73.9127C84.4238 73.9813 83.8713 74.2019 83.1463 74.5746C82.9461 74.6896 82.7551 74.8157 82.5715 74.9529C82.247 75.2236 81.9634 75.5073 81.7223 75.8021C81.4813 76.0969 81.2829 76.4028 81.1253 76.7217L80.9232 77.2075C80.8082 77.5376 80.7359 77.8806 80.7062 78.2329C80.6228 79.1155 80.8008 79.9183 81.2439 80.6377C81.5647 81.1143 82.019 81.4591 82.6068 81.6705C83.1222 81.8226 83.4485 81.8949 83.5876 81.8893C84.0141 81.8967 84.4201 81.8689 84.8095 81.8059C85.197 81.741 85.5679 81.6427 85.9183 81.5073L86.4319 81.2793C87.0957 80.9381 87.6872 80.456 88.2026 79.8312C89.0389 78.6464 89.4023 77.4226 89.2947 76.1636C89.1316 74.7841 88.6495 73.5085 87.8429 72.3385Z" fill="#F5A630" fill-opacity="0.992"/>
<path d="M90.4979 76.9144L90.5572 76.7902C90.7148 76.4545 90.8613 76.1041 90.993 75.7351L88.6845 77.6672C88.8013 77.2351 88.7568 76.792 88.5529 76.3377C88.2933 75.839 87.9818 75.4181 87.6147 75.0713C87.3644 74.7747 86.8971 74.4057 86.2111 73.9663C86.0127 73.8494 85.8069 73.7475 85.5973 73.6566C85.2005 73.5101 84.813 73.4063 84.4366 73.3451C84.0621 73.2839 83.6968 73.2654 83.3427 73.2876L82.8198 73.3562C82.4768 73.4211 82.1449 73.5305 81.8241 73.6807C81.0175 74.0497 80.4131 74.6041 80.0107 75.3476C79.7586 75.8649 79.6862 76.4304 79.7975 77.0442C79.9236 77.567 80.0237 77.886 80.0979 78.0046C80.3037 78.3773 80.5317 78.7148 80.7821 79.0207C81.0305 79.3248 81.3012 79.5955 81.5942 79.8328L82.0485 80.161C82.677 80.5671 83.389 80.8378 84.1882 80.9713C85.6326 81.1029 86.873 80.8081 87.9113 80.0832C89.0238 79.2525 89.886 78.1975 90.4979 76.9144Z" fill="#F5A630" fill-opacity="0.992"/>
<path d="M87.8614 81.5017L88.0005 81.4905C88.3694 81.4609 88.7458 81.4108 89.1296 81.3404L86.3039 80.3076C86.7359 80.1926 87.0975 79.933 87.3886 79.527C87.6908 79.056 87.9003 78.5739 88.0171 78.0844C88.1488 77.7173 88.2341 77.1277 88.273 76.3156C88.273 76.0838 88.26 75.8557 88.2341 75.6295C88.1618 75.2105 88.0579 74.8248 87.9226 74.4688C87.7891 74.111 87.6222 73.7865 87.4257 73.4917L87.1049 73.0726C86.8768 72.8093 86.6172 72.5757 86.3261 72.3736C85.603 71.8581 84.8187 71.6115 83.9751 71.6356C83.4021 71.6746 82.8755 71.8971 82.399 72.2994C82.0096 72.6703 81.7834 72.9169 81.7185 73.0392C81.4979 73.4045 81.3199 73.7716 81.1808 74.1388C81.0418 74.5077 80.9416 74.8786 80.8842 75.2494L80.8248 75.8075C80.7877 76.5547 80.9101 77.3057 81.192 78.0659C81.802 79.3824 82.679 80.3094 83.8249 80.8453C85.1005 81.3941 86.4467 81.6129 87.8614 81.5017Z" fill="#F5A630" fill-opacity="0.992"/>
<path d="M79.9181 76.9368L79.8569 77.061C79.6993 77.3948 79.5546 77.7471 79.4211 78.1142L81.7296 76.1821C81.6128 76.6142 81.6573 77.0592 81.8631 77.5134C82.1208 78.0103 82.4342 78.4312 82.7994 78.778C83.0497 79.0765 83.5189 79.4436 84.203 79.8849C84.4033 79.9999 84.6072 80.1037 84.8168 80.1946C85.2154 80.341 85.6011 80.443 85.9775 80.5061C86.3539 80.5672 86.7191 80.5858 87.0714 80.5617L87.5943 80.4949C87.9373 80.4282 88.2692 80.3206 88.59 80.1686C89.3984 79.8015 90.0029 79.2452 90.4052 78.5017C90.6574 77.9862 90.7279 77.4207 90.6185 76.8051C90.4905 76.2841 90.3904 75.9633 90.3181 75.8465C90.1104 75.4738 89.8824 75.1345 89.6339 74.8304C89.3836 74.5264 89.1129 74.2557 88.8199 74.0183L88.3656 73.6883C87.7389 73.2822 87.0251 73.0134 86.2278 72.878C84.7815 72.7464 83.5411 73.043 82.5046 73.7662C81.3903 74.5968 80.5281 75.6537 79.9181 76.9368Z" fill="#F5A630" fill-opacity="0.992"/>
<path d="M82.5715 81.5128L82.6494 81.6259C82.8607 81.93 83.0925 82.2322 83.3447 82.5308L82.8255 79.5659C83.1426 79.883 83.5486 80.0666 84.0437 80.1148C84.6036 80.1407 85.1247 80.0814 85.6086 79.9368C85.9906 79.8682 86.545 79.6475 87.2681 79.2748C87.4683 79.1599 87.6593 79.0338 87.8429 78.8984C88.1692 78.6259 88.4529 78.344 88.6939 78.0474C88.935 77.7526 89.1334 77.4466 89.2891 77.1277L89.4931 76.6419C89.6062 76.3119 89.6785 75.9707 89.7082 75.6166C89.7935 74.734 89.6136 73.933 89.1723 73.2117C88.8515 72.7352 88.3973 72.3922 87.8095 72.1789C87.294 72.0288 86.9659 71.9546 86.8286 71.9602C86.4022 71.9527 85.9943 71.9805 85.6068 72.0454C85.2174 72.1085 84.8484 72.2086 84.4961 72.3421L83.9844 72.572C83.3187 72.9113 82.7291 73.3934 82.2118 74.0183C81.3755 75.2031 81.0121 76.4268 81.1215 77.6877C81.2828 79.0672 81.7668 80.341 82.5715 81.5128Z" fill="#F5A630" fill-opacity="0.992"/>
<path d="M81.0696 70.9607L81.014 70.9644C80.8082 70.9551 80.4058 71.0219 79.8088 71.1647L79.1394 71.3927C78.7185 71.5707 78.3551 71.7951 78.0436 72.0695L77.6171 72.5163C77.3594 72.839 77.1555 73.2098 77.0071 73.6288L76.8236 74.2945L76.7197 75.0324C76.742 75.3551 76.8217 75.6573 76.9589 75.9373C77.5838 77.0869 78.9966 77.8415 81.1938 78.2012C82.9219 78.4219 84.2551 77.9602 85.1951 76.8162L85.3583 81.4238C86.2928 81.344 87.1513 81.0437 87.9356 80.5226L88.5104 80.0906C88.8831 79.7754 89.2391 79.4064 89.5747 78.9818C89.9103 78.5554 90.2273 78.077 90.524 77.5411L90.6872 77.0424C90.8429 76.3786 90.7613 75.7259 90.4406 75.0844C90.1179 74.441 89.558 73.8087 88.7588 73.1875L87.9133 72.6684C87.3478 72.3439 86.7823 72.0658 86.2149 71.8322C84.5128 71.1313 82.7977 70.842 81.0696 70.9607Z" fill="white" fill-opacity="0.992"/>
<path d="M88.3046 70.3599L88.2712 70.3117C88.1767 70.13 87.9189 69.8148 87.4962 69.3679L86.9641 68.9026C86.6006 68.6281 86.2224 68.4242 85.8312 68.2925L85.2304 68.1461C84.8225 68.0849 84.3997 68.0941 83.9622 68.1739L83.2928 68.3482L82.6031 68.6281C82.3342 68.808 82.1136 69.0286 81.9393 69.2882C81.2551 70.4044 81.3088 72.0046 82.0969 74.0868C82.7681 75.6944 83.8342 76.6177 85.2953 76.8606L81.3867 79.3044C81.9244 80.0739 82.6142 80.6672 83.456 81.0863L84.1179 81.3681C84.5759 81.5331 85.0747 81.6555 85.6105 81.7352C86.1464 81.8131 86.7193 81.8465 87.333 81.8372L87.8466 81.7297C88.4993 81.5331 89.0222 81.1345 89.419 80.5356C89.8139 79.9367 90.0809 79.1357 90.22 78.1326L90.2478 77.1388C90.2459 76.4879 90.2033 75.8594 90.1217 75.2512C89.8769 73.4267 89.2706 71.7969 88.3046 70.3599Z" fill="white" fill-opacity="0.992"/>
<path d="M92.4411 76.323L92.467 76.273C92.5764 76.1005 92.7192 75.7186 92.8953 75.1289L93.0325 74.4355C93.0882 73.9831 93.077 73.5548 92.9955 73.1487L92.8212 72.5554C92.671 72.1715 92.4503 71.81 92.1629 71.4707L91.679 70.9793L91.0912 70.5213C90.8001 70.3786 90.4997 70.297 90.1864 70.2766C88.8792 70.2432 87.5201 71.0869 86.1091 72.8112C85.0541 74.1963 84.7871 75.5832 85.3081 76.9701L81.2363 74.8045C80.8395 75.6555 80.669 76.5492 80.7283 77.4893L80.8136 78.2031C80.9007 78.6834 81.0435 79.1747 81.2437 79.6791C81.444 80.1815 81.7017 80.6951 82.0151 81.2217L82.3655 81.6111C82.8624 82.0784 83.4687 82.3342 84.1863 82.3769C84.9039 82.4195 85.7308 82.2508 86.6672 81.8688L87.5424 81.396C88.1042 81.0697 88.6289 80.7193 89.1147 80.3447C90.5721 79.2211 91.6809 77.8805 92.4411 76.323Z" fill="white" fill-opacity="0.992"/>
<path d="M89.3447 82.8886L89.4022 82.8849C89.6062 82.8942 90.0085 82.8274 90.6074 82.6865L91.2768 82.4566C91.6958 82.2804 92.0611 82.0542 92.3726 81.7798L92.799 81.333C93.0568 81.0103 93.2589 80.6395 93.4091 80.2205L93.5926 79.5567L93.6946 78.8187C93.6742 78.4942 93.5945 78.1939 93.4554 77.912C92.8306 76.7624 91.4195 76.0078 89.2205 75.6499C87.4943 75.4274 86.1593 75.8891 85.2192 77.0331L85.0579 72.4255C84.1234 72.5071 83.2631 72.8075 82.4788 73.3285L81.9058 73.7587C81.5313 74.0739 81.1771 74.4447 80.8415 74.8693C80.5059 75.2939 80.1889 75.7742 79.8903 76.3082L79.729 76.8088C79.5714 77.4707 79.6549 78.1234 79.9756 78.7668C80.2964 79.4083 80.8564 80.0406 81.6574 80.6617L82.5029 81.1828C83.0665 81.5072 83.632 81.7854 84.1994 82.019C85.9015 82.718 87.6167 83.0091 89.3447 82.8886Z" fill="white" fill-opacity="0.992"/>
<path d="M77.9731 77.5263L77.949 77.5782C77.8377 77.7507 77.6949 78.1308 77.5188 78.7204L77.3834 79.4157C77.326 79.8663 77.3389 80.2964 77.4205 80.7025L77.5948 81.2958C77.745 81.6797 77.9638 82.0412 78.253 82.3787L78.737 82.8719L79.3248 83.3299C79.614 83.4708 79.9162 83.5542 80.2277 83.5746C81.5368 83.608 82.8959 82.7625 84.305 81.0381C85.3619 79.653 85.6289 78.268 85.1079 76.8811L89.1796 79.0449C89.5764 78.1957 89.7452 77.3001 89.6877 76.36L89.6005 75.648C89.5153 75.1678 89.3706 74.6746 89.1704 74.1721C88.972 73.6678 88.7143 73.1542 88.4009 72.6276L88.0486 72.2382C87.5517 71.771 86.9454 71.5151 86.2297 71.4725C85.5121 71.4298 84.6851 71.6004 83.7469 71.9805L82.8736 72.4533C82.31 72.7797 81.7871 73.1301 81.3013 73.5065C79.8439 74.6301 78.7351 75.9707 77.9731 77.5263Z" fill="white" fill-opacity="0.992"/>
<path d="M82.1116 83.4911L82.1431 83.5374C82.2377 83.7192 82.4954 84.0344 82.9182 84.4812L83.4522 84.9466C83.8137 85.221 84.192 85.425 84.5851 85.5566L85.1858 85.7031C85.5937 85.7643 86.0165 85.755 86.4541 85.6753L87.1216 85.501L87.8113 85.221C88.0802 85.0412 88.3027 84.8224 88.4751 84.5609C89.1593 83.4447 89.1074 81.8464 88.3194 79.7624C87.6482 78.1548 86.5802 77.2314 85.1191 76.9904L89.0295 74.5447C88.4918 73.7771 87.8021 73.1819 86.9584 72.7629L86.2983 72.4811C85.8385 72.316 85.3416 72.1937 84.8057 72.1158C84.2699 72.0379 83.6951 72.0027 83.0832 72.0119L82.5696 72.1213C81.9169 72.3179 81.3922 72.7147 80.9973 73.3136C80.6005 73.9143 80.3335 74.7153 80.1963 75.7184L80.1685 76.7104C80.1703 77.3612 80.2111 77.9916 80.2927 78.5979C80.5374 80.4225 81.1437 82.0541 82.1116 83.4911Z" fill="white" fill-opacity="0.992"/>
<path d="M83.7712 73.6009L83.6321 73.6121C83.2557 73.6473 82.8552 73.7196 82.425 73.829L84.1272 74.2202C83.7359 74.3241 83.4096 74.5113 83.1519 74.7839L83.0277 74.9285C82.9479 75.0287 82.8775 75.138 82.8126 75.2567C82.744 75.3828 82.6865 75.5126 82.6383 75.6498C82.4009 76.4026 82.4343 77.1554 82.7403 77.91L82.9739 78.4737L83.2409 78.9799L83.5413 79.4286L83.8732 79.8198L84.2384 80.1517L84.6371 80.428L85.0672 80.6449C85.5122 80.8285 85.9164 80.9064 86.278 80.8767C86.4282 80.8656 86.571 80.8396 86.7082 80.7951C87.0401 80.6579 87.2292 80.5559 87.2811 80.4873C87.5147 80.3 87.7243 80.0479 87.906 79.7271C88.3547 78.7018 88.4084 77.6745 88.0673 76.6455C87.7224 75.622 87.1346 74.8303 86.304 74.2703C85.5178 73.7252 84.6742 73.5027 83.7712 73.6009Z" fill="white" fill-opacity="0.992"/>
<path d="M87.3682 74.0184L87.2885 73.9034C87.0716 73.5956 86.8083 73.2841 86.4986 72.967L87.0104 74.6376C86.723 74.3502 86.3985 74.1611 86.0332 74.074L85.8478 74.0387C85.7217 74.0202 85.5901 74.0128 85.4547 74.0165C85.312 74.0202 85.1692 74.035 85.0264 74.0629C84.2569 74.2316 83.621 74.6376 83.1203 75.281L82.7495 75.765L82.4436 76.2508L82.2062 76.7347L82.0338 77.2168L81.9281 77.7007L81.8892 78.1828L81.9151 78.663C81.98 79.1414 82.1135 79.5308 82.3212 79.8275C82.4046 79.9535 82.4992 80.0629 82.6049 80.1612C82.8904 80.3781 83.0758 80.4913 83.1593 80.5024C83.4374 80.6118 83.7619 80.6655 84.1308 80.6637C85.2415 80.5395 86.1575 80.0722 86.8787 79.2619C87.5926 78.4517 87.9857 77.5468 88.0543 76.5474C88.134 75.5944 87.9041 74.7507 87.3682 74.0184Z" fill="white" fill-opacity="0.992"/>
<path d="M88.8052 77.3427L88.8645 77.2166C89.0221 76.8736 89.1611 76.4898 89.2798 76.0633L88.0894 77.3409C88.197 76.9496 88.197 76.5751 88.0894 76.2135L88.0283 76.0355C87.98 75.9169 87.9207 75.8 87.8503 75.6851C87.7761 75.5627 87.6908 75.4478 87.5962 75.3384C87.0641 74.7561 86.3947 74.4076 85.5882 74.2945L84.9819 74.2166L84.4108 74.1943L83.8712 74.2296L83.3669 74.3223L82.8959 74.4725L82.4602 74.6801L82.056 74.9434C81.674 75.2364 81.4052 75.5479 81.2494 75.8761C81.1845 76.0114 81.1363 76.1486 81.1048 76.2895C81.0584 76.6455 81.0529 76.8606 81.0863 76.9385C81.1308 77.2352 81.2457 77.543 81.4311 77.86C82.0949 78.7611 82.959 79.3211 84.0195 79.5399C85.0783 79.7531 86.0573 79.64 86.9584 79.2006C87.8224 78.7927 88.438 78.1734 88.8052 77.3427Z" fill="white" fill-opacity="0.992"/>
<path d="M86.645 80.2501L86.784 80.2389C87.1586 80.2037 87.5609 80.1314 87.9892 80.022L86.2871 79.6289C86.6802 79.5251 87.0047 79.3378 87.2643 79.0652L87.3885 78.9225C87.4664 78.8223 87.5387 78.7129 87.6017 78.5943C87.6722 78.4682 87.7297 78.3366 87.776 78.1993C88.0152 77.4484 87.9818 76.6956 87.6759 75.9391L87.4404 75.3754L87.1734 74.8693L86.873 74.4206L86.5411 74.0312L86.1759 73.6974L85.7791 73.423L85.3489 73.2061C84.9021 73.0207 84.4979 72.9428 84.1363 72.9724C83.9861 72.9836 83.8433 73.0095 83.7061 73.054C83.3761 73.1912 83.1851 73.2951 83.135 73.3618C82.8996 73.5491 82.6919 73.8031 82.5083 74.122C82.0615 75.1474 82.0077 76.1746 82.3489 77.2037C82.6937 78.2272 83.2815 79.0189 84.1122 79.5788C84.8965 80.124 85.742 80.3483 86.645 80.2501Z" fill="white" fill-opacity="0.992"/>
<path d="M81.611 76.5065L81.5499 76.6345C81.3923 76.9756 81.255 77.3594 81.1345 77.7859L82.3249 76.5084C82.2192 76.8996 82.2192 77.276 82.3249 77.6357L82.3879 77.8156C82.4343 77.9324 82.4936 78.0492 82.5659 78.1641C82.6401 78.2865 82.7235 78.4033 82.8181 78.5127C83.3503 79.0949 84.0196 79.4417 84.8262 79.5548L85.4325 79.6345L86.0054 79.6549L86.5431 79.6197L87.0475 79.527L87.5184 79.3768L87.956 79.171L88.3584 78.9058C88.7422 78.6128 89.011 78.3013 89.1649 77.9732C89.2317 77.8378 89.2799 77.7006 89.3114 77.5615C89.3559 77.2055 89.3633 76.9886 89.3299 76.9107C89.2854 76.6141 89.1705 76.3063 88.9832 75.9892C88.3194 75.0881 87.4572 74.5281 86.3966 74.3093C85.3361 74.0961 84.3571 74.2092 83.4559 74.6486C82.5919 75.0566 81.9763 75.6758 81.611 76.5065Z" fill="white" fill-opacity="0.992"/>
<path d="M83.048 79.831L83.1258 79.946C83.3446 80.2538 83.6079 80.5653 83.9176 80.8823L83.4058 79.2117C83.6914 79.501 84.0177 79.6883 84.383 79.7773L84.5684 79.8125C84.6945 79.831 84.8243 79.8366 84.9596 79.8329C85.1024 79.831 85.2452 79.8143 85.3879 79.7884C86.1574 79.6178 86.7934 79.2117 87.2959 78.5702L87.6667 78.0844L87.9708 77.6005L88.21 77.1165L88.3806 76.6326L88.4862 76.1505L88.527 75.6684L88.4992 75.1863C88.4362 74.708 88.3008 74.3204 88.095 74.0219C88.0116 73.8977 87.9152 73.7864 87.8095 73.69C87.5239 73.4731 87.3404 73.3581 87.2569 73.3489C86.9769 73.2395 86.6543 73.1857 86.2853 73.1875C85.1728 73.3118 84.2569 73.779 83.5375 74.5874C82.8218 75.3996 82.4305 76.3044 82.3601 77.3038C82.2822 78.2568 82.5103 79.0986 83.048 79.831Z" fill="white" fill-opacity="0.992"/>
<path d="M85.2526 75.5164L85.145 75.522C85.0505 75.5312 84.967 75.5516 84.891 75.5869C84.8539 75.6036 84.8169 75.624 84.7835 75.6481C84.7649 75.6555 84.7186 75.6981 84.6463 75.7741C84.5128 75.9651 84.4182 76.1709 84.3626 76.3879C84.3107 76.3934 84.2625 76.4138 84.2161 76.4472C84.1382 76.514 84.0845 76.5751 84.0585 76.6326C84.0121 76.7123 83.9751 76.8032 83.9417 76.9052L83.9306 77.0387C83.9176 77.3391 84.0492 77.619 84.3255 77.8786C84.4386 77.9806 84.5628 78.0603 84.7 78.116C84.8762 78.1846 85.0375 78.2142 85.184 78.2031C85.5122 78.1716 85.8051 78.0362 86.0591 77.7933C86.2223 77.6172 86.3317 77.467 86.3873 77.3428C86.4541 77.2056 86.493 77.0702 86.5023 76.9367C86.5153 76.755 86.4967 76.5955 86.4467 76.4565C86.3781 76.2877 86.2798 76.1264 86.1519 75.9725C86.0517 75.852 85.9256 75.75 85.7736 75.6666C85.5344 75.5553 85.3601 75.5053 85.2526 75.5164Z" fill="#F5A630" fill-opacity="0.992"/>
</svg>
